<svg class="inline fill-current mx-1" xmlns="http://www.w3.org/2000/svg" width="13" height="15">
<path d="M10.628 7.968c.03 2.268 2.064 3.033 2.064 3.062-.03.057-.324 1.077-1.091 2.126-.649.936-1.327 1.815-2.389 1.843-1.032 0-1.386-.595-2.566-.595-1.21 0-1.563.567-2.566.595-1.003.029-1.77-.992-2.448-1.9C.305 11.23-.728 7.827.659 5.53a3.877 3.877 0 0 1 3.215-1.871c1.032-.029 1.976.652 2.595.652.62 0 1.77-.794 2.979-.68.501 0 1.947.17 2.86 1.474-.058.056-1.71.964-1.68 2.864zM8.68 2.41c-.56.624-1.475 1.106-2.33 1.05-.118-.851.325-1.759.826-2.326C7.737.51 8.71.028 9.477 0c.118.879-.265 1.758-.796 2.41z"></path>
</svg>